# xmcd CD database file
#
# Track frame offsets:
#	150
#	20138
#	44190
#	70195
#	86763
#	122005
#	143535
#	166245
#	190430
#	212045
#	233915
#	253583
#	285053
#
# Disc length: 4121 seconds
#
# Revision: 1
# Processed by: cddbd v1.5.2PL0 Copyright (c) Steve Scherf et al.
# Submitted via: CDex 1.51
#
DISCID=bb10170d
DTITLE=Jazzy Jive - BUZZ BUZZ SHOO-BE DOO-BEE(Live At The JIROKICHI)
DYEAR=1995
DGENRE=Jazz
TTITLE0=Cherry Red
TTITLE1=It's A Sin To Tell A Lie
TTITLE2=Please
TTITLE3=Buzz Buzz Buzz
TTITLE4=(Let Me Love You)All Night Long
TTITLE5=I Got Rhythm
TTITLE6=You're The Top
TTITLE7=Two Sleepy People
TTITLE8=I'll Never Be Free
TTITLE9=Whistlin' At A Chicks
TTITLE10=Blue Skies
TTITLE11=Ooh-Shoo-Be-Doo-Bee
TTITLE12=Hard Luck Blues
EXTD=YEAR: 1995
EXTT0=
EXTT1=
EXTT2=
EXTT3=
EXTT4=
EXTT5=
EXTT6=
EXTT7=
EXTT8=
EXTT9=
EXTT10=
EXTT11=
EXTT12=
PLAYORDER=
